HIERARCHY
ROOT Hips
{
	OFFSET 0.00 0.00 0.00
	CHANNELS 6 Xposition Yposition Zposition Xrotation Yrotation Zrotation
	JOINT Spine
	{
		OFFSET 0.00000 1.72418 2.58627
		CHANNELS 3 Xrotation Yrotation Zrotation
		JOINT Spine1
		{
			OFFSET 0.00000 0.59880 3.39597
			CHANNELS 3 Xrotation Yrotation Zrotation
			JOINT Spine2
			{
				OFFSET 0.00000 0.30055 3.43524
				CHANNELS 3 Xrotation Yrotation Zrotation
				JOINT Spine3
				{
					OFFSET 0.00000 0.00000 3.44836
					CHANNELS 3 Xrotation Yrotation Zrotation
					JOINT Neck
					{
						OFFSET 0.00000 -1.29313 9.05195
						CHANNELS 3 Xrotation Yrotation Zrotation
						JOINT Head
						{
							OFFSET 0.00000 -0.82335 4.66946
							CHANNELS 3 Xrotation Yrotation Zrotation
							End Site
							{
								OFFSET 0.00000 0.00001 5.58203
							}
						}
					}
					JOINT RightShoulder
					{
						OFFSET -1.18828 -1.98046 6.41673
						CHANNELS 3 Xrotation Yrotation Zrotation
						JOINT RightArm
						{
							OFFSET -5.90180 0.00000 0.00000
							CHANNELS 3 Xrotation Yrotation Zrotation
							JOINT RightForeArm
							{
								OFFSET -11.45951 0.00000 0.00000
								CHANNELS 3 Xrotation Yrotation Zrotation
								JOINT RightHand
								{
									OFFSET -10.63451 0.00000 0.00000
									CHANNELS 3 Xrotation Yrotation Zrotation
									JOINT RightHandEnd
									{
										OFFSET -2.86944 0.00000 0.00000
										CHANNELS 3 Xrotation Yrotation Zrotation
										End Site
										{
											OFFSET -2.86944 0.00000 0.00000
										}
									}
									JOINT RightHandThumb1
									{
										OFFSET -1.14778 -1.91296 -0.76518
										CHANNELS 3 Yrotation Xrotation Zrotation
										End Site
										{
											OFFSET -2.77167 -0.74267 0.00000
										}
									}
								}
							}
						}
					}
					JOINT LeftShoulder
					{
						OFFSET 1.18828 -1.98046 6.41673
						CHANNELS 3 Xrotation Yrotation Zrotation
						JOINT LeftArm
						{
							OFFSET 5.90180 0.00000 0.00000
							CHANNELS 3 Xrotation Yrotation Zrotation
							JOINT LeftForeArm
							{
								OFFSET 11.45951 0.00000 0.00000
								CHANNELS 3 Xrotation Yrotation Zrotation
								JOINT LeftHand
								{
									OFFSET 10.63451 0.00000 0.00000
									CHANNELS 3 Xrotation Yrotation Zrotation
									JOINT LeftHandEnd
									{
										OFFSET 2.86944 0.00000 0.00000
										CHANNELS 3 Xrotation Yrotation Zrotation
										End Site
										{
											OFFSET 2.86944 0.00000 0.00000
										}
									}
									JOINT LeftHandThumb1
									{
										OFFSET 1.14778 -1.91296 -0.76518
										CHANNELS 3 Yrotation Xrotation Zrotation
										End Site
										{
											OFFSET 2.77167 -0.74267 0.00000
										}
									}
								}
							}
						}
					}
				}
			}
		}
	}
	JOINT RightUpLeg
	{
		OFFSET -3.52524 0.00000 -1.02984
		CHANNELS 3 Xrotation Yrotation Zrotation
		JOINT RightLeg
		{
			OFFSET 0.00001 0.00000 -17.80965
			CHANNELS 3 Xrotation Yrotation Zrotation
			JOINT RightFoot
			{
				OFFSET 0.00001 0.00000 -17.00908
				CHANNELS 3 Xrotation Yrotation Zrotation
				JOINT RightToeBase
				{
					OFFSET 0.00000 -5.55853 -2.02314
					CHANNELS 3 Xrotation Yrotation Zrotation
					End Site
					{
						OFFSET 0.00000 -2.85188 -0.00000
					}
				}
			}
		}
	}
	JOINT LeftUpLeg
	{
		OFFSET 3.52524 0.00000 -1.02984
		CHANNELS 3 Xrotation Yrotation Zrotation
		JOINT LeftLeg
		{
			OFFSET 0.00001 0.00000 -17.80965
			CHANNELS 3 Xrotation Yrotation Zrotation
			JOINT LeftFoot
			{
				OFFSET 0.00001 0.00000 -17.00908
				CHANNELS 3 Xrotation Yrotation Zrotation
				JOINT LeftToeBase
				{
					OFFSET 0.00000 -5.55853 -2.02314
					CHANNELS 3 Xrotation Yrotation Zrotation
					End Site
					{
						OFFSET 0.00000 -2.85188 -0.00000
					}
				}
			}
		}
	}
}
MOTION
Frames: 16
Frame Time: 0.008342
 5.8174 -3.0954 33.9883 5.3321 6.5766 -177.9653 1.3770 2.9005 -1.8156 0.6434 -0.5088 -0.1121 3.0237 -1.0243 -0.6163 0.8029 -0.4569 0.1825 -0.9333 -0.1471 0.3167 -1.4427 1.5518 0.8986 11.9508 -10.6115 0.4905 -44.6631 -31.9361 -11.0102 -0.0001 0.0001 124.0501 13.3573 46.4947 24.3767 0.0000 0.0000 -0.0000 0.0000 0.0000 -0.0000 12.6462 7.2884 0.4867 -56.9789 33.2273 28.2092 -0.0001 -0.0000 -132.5834 9.2996 -38.4217 -35.6500 -0.0000 -0.0000 0.0000 0.0000 -0.0000 0.0000 -36.5132 10.2171 -5.4582 40.9355 0.0000 0.0000 -4.2441 -4.6033 -0.7179 -6.5404 0.0000 -0.0000 12.8959 8.8040 -3.3523 30.6287 0.0000 0.0000 -35.5024 -9.2407 13.1221 -2.0960 0.0000 -0.0000
 5.8693 -2.6579 33.9099 5.1372 6.2008 -178.1087 1.1472 2.6432 -1.7413 0.5692 -0.5390 -0.1312 2.8831 -1.2362 -0.6631 0.7629 -0.4846 0.1864 -0.8953 0.0083 0.4933 -1.3844 1.5809 0.9870 11.4216 -10.8504 0.5431 -44.7601 -30.7714 -10.1974 -0.0001 0.0001 124.6638 12.9946 46.6034 25.0286 0.0000 0.0000 -0.0000 -0.0000 0.0000 -0.0000 12.0910 7.5839 0.6790 -57.4148 31.8338 27.8103 -0.0001 -0.0000 -133.0969 8.5765 -39.0001 -35.7890 0.0000 0.0000 -0.0000 0.0000 0.0000 -0.0000 -36.9755 9.6383 -5.0994 42.5720 0.0000 0.0000 -4.8311 -3.8798 -1.1207 -5.0960 0.0000 -0.0000 13.5388 8.3612 -3.4094 30.4422 0.0000 0.0000 -35.6491 -8.8808 13.2690 -2.4614 0.0000 -0.0000
 5.9233 -2.2166 33.8437 4.9467 5.8186 -178.2334 0.9150 2.4067 -1.6649 0.4945 -0.5787 -0.1526 2.7368 -1.4615 -0.7278 0.7187 -0.5191 0.1932 -0.8828 0.1595 0.6648 -1.3057 1.6143 1.0728 10.8621 -11.0753 0.5917 -44.9546 -29.5982 -9.3782 -0.0001 0.0001 125.2788 12.6078 46.7776 25.6656 -0.0000 0.0000 -0.0000 0.0000 -0.0000 -0.0000 11.5466 7.8560 0.8619 -57.9476 30.4249 27.3650 -0.0001 -0.0000 -133.5576 7.8352 -39.6211 -35.9253 -0.0000 -0.0000 -0.0000 0.0000 -0.0000 -0.0000 -37.3593 9.0590 -4.8099 44.1263 0.0000 0.0000 -5.5806 -3.1948 -1.5285 -3.7378 0.0000 -0.0000 14.1600 7.9128 -3.4932 30.3109 0.0000 0.0000 -35.6320 -8.5188 13.4367 -2.9721 0.0000 -0.0000
 5.9787 -1.7723 33.7911 4.7687 5.4408 -178.3291 0.6882 2.1930 -1.5900 0.4210 -0.6134 -0.1808 2.5842 -1.7078 -0.7966 0.6729 -0.5533 0.1947 -0.8985 0.2992 0.8239 -1.2057 1.6530 1.1521 10.2728 -11.2816 0.6318 -45.2446 -28.4397 -8.5706 -0.0001 0.0001 125.8892 12.2093 47.0078 26.2678 -0.0000 -0.0000 -0.0000 -0.0000 -0.0000 0.0000 11.0235 8.0856 1.0330 -58.5848 29.0438 26.8889 -0.0001 -0.0000 -133.9576 7.1068 -40.2704 -36.0528 0.0000 -0.0000 -0.0000 0.0000 0.0000 0.0000 -37.6394 8.4971 -4.5883 45.5767 0.0000 0.0000 -6.4759 -2.5683 -1.9353 -2.5384 0.0000 -0.0000 14.7447 7.4666 -3.6003 30.2718 0.0000 0.0000 -35.4265 -8.1570 13.6160 -3.6658 0.0000 -0.0000
 6.0351 -1.3258 33.7533 4.6040 5.0795 -178.3882 0.4630 2.0114 -1.5193 0.3562 -0.6414 -0.1993 2.4239 -1.9676 -0.8907 0.6261 -0.5917 0.2018 -0.9411 0.4264 0.9638 -1.0859 1.6959 1.2182 9.6623 -11.4660 0.6519 -45.6267 -27.3191 -7.7797 -0.0001 0.0001 126.4870 11.8216 47.2849 26.8126 -0.0000 0.0000 0.0000 0.0000 0.0000 0.0000 10.5229 8.2611 1.1788 -59.3203 27.7158 26.4018 -0.0001 -0.0000 -134.2953 6.4253 -40.9340 -36.1599 -0.0000 -0.0000 -0.0000 0.0000 0.0000 -0.0000 -37.8010 7.9675 -4.4266 46.9012 0.0000 0.0000 -7.4898 -2.0135 -2.3375 -1.5502 0.0000 -0.0000 15.2726 7.0305 -3.7209 30.3560 0.0000 0.0000 -35.0092 -7.7912 13.7916 -4.5799 0.0000 -0.0000
 6.0924 -0.8778 33.7315 4.4681 4.7410 -178.4059 0.2581 1.8705 -1.4503 0.2925 -0.6726 -0.2226 2.2633 -2.2316 -0.9945 0.5768 -0.6336 0.2124 -1.0077 0.5414 1.0800 -0.9468 1.7405 1.2658 9.0404 -11.6153 0.6474 -46.1004 -26.2654 -7.0258 -0.0001 0.0001 127.0703 11.4609 47.5895 27.2891 0.0000 0.0000 0.0000 -0.0000 -0.0000 0.0000 10.0521 8.3755 1.2953 -60.1434 26.4706 25.9079 -0.0001 -0.0000 -134.5692 5.8132 -41.6026 -36.2395 0.0000 -0.0000 -0.0000 0.0000 -0.0000 -0.0000 -37.8150 7.4775 -4.3196 48.0780 0.0000 0.0000 -8.5888 -1.5368 -2.7324 -0.8037 0.0000 -0.0000 15.7441 6.6044 -3.8428 30.5826 0.0000 0.0000 -34.3582 -7.4130 13.9440 -5.7439 0.0000 -0.0000
 6.1504 -0.4294 33.7268 4.3458 4.4265 -178.3759 0.0521 1.7583 -1.3872 0.2370 -0.6904 -0.2402 2.1005 -2.4990 -1.1092 0.5266 -0.6757 0.2224 -1.0922 0.6382 1.1681 -0.7939 1.7865 1.2929 8.4090 -11.7351 0.6202 -46.6520 -25.2846 -6.3192 -0.0001 0.0001 127.6382 11.1413 47.9061 27.6896 0.0000 0.0000 0.0000 0.0000 0.0000 0.0000 9.6039 8.4273 1.3752 -61.0281 25.3172 25.4093 -0.0001 -0.0000 -134.7839 5.2791 -42.2674 -36.2912 0.0000 0.0000 -0.0000 0.0000 0.0000 -0.0000 -37.6891 7.0290 -4.2623 49.0868 0.0000 0.0000 -9.7314 -1.1375 -3.1203 -0.3053 0.0000 -0.0000 16.1260 6.1833 -3.9495 30.9711 0.0000 0.0000 -33.4598 -7.0120 14.0476 -7.1755 0.0000 -0.0000
 6.2092 0.0190 33.7403 4.2468 4.1362 -178.2982 -0.1438 1.6741 -1.3286 0.1852 -0.6991 -0.2526 1.9388 -2.7606 -1.2405 0.4760 -0.7193 0.2390 -1.1891 0.7162 1.2255 -0.6301 1.8319 1.2984 7.7788 -11.8171 0.5696 -47.2742 -24.3949 -5.6703 -0.0001 0.0001 128.1906 10.8665 48.2211 28.0251 0.0000 0.0000 -0.0000 0.0000 0.0000 -0.0000 9.1685 8.4149 1.4192 -61.9456 24.2710 24.9078 -0.0001 -0.0000 -134.9465 4.8274 -42.9270 -36.3147 0.0000 0.0000 -0.0000 0.0000 -0.0000 -0.0000 -37.4096 6.6187 -4.2488 49.9127 0.0000 0.0000 -10.8788 -0.8096 -3.5028 -0.0422 0.0000 -0.0000 16.4223 5.7612 -4.0288 31.5196 0.0000 0.0000 -32.2993 -6.5813 14.0796 -8.8748 0.0000 -0.0000
 6.2692 0.4670 33.7725 4.1721 3.8622 -178.1758 -0.3284 1.6114 -1.2741 0.1339 -0.7073 -0.2743 1.7820 -3.0104 -1.3564 0.4239 -0.7581 0.2479 -1.2895 0.7735 1.2514 -0.4592 1.8746 1.2826 7.1542 -11.8651 0.5041 -47.9521 -23.5906 -5.0867 -0.0001 0.0001 128.7318 10.6396 48.5234 28.2999 -0.0000 0.0000 -0.0000 0.0000 -0.0000 -0.0000 8.7437 8.3451 1.4233 -62.8740 23.3280 24.3970 -0.0001 -0.0000 -135.0667 4.4417 -43.5756 -36.3159 0.0000 -0.0000 0.0000 0.0000 -0.0000 -0.0000 -36.9753 6.2331 -4.2738 50.5444 0.0000 0.0000 -11.9929 -0.5419 -3.8859 0.0181 0.0000 0.0000 16.6316 5.3243 -4.0657 32.2197 0.0000 0.0000 -30.8696 -6.1190 14.0154 -10.8217 0.0000 -0.0000
 6.3303 0.9142 33.8236 4.1204 3.6055 -178.0135 -0.5044 1.5563 -1.2246 0.0855 -0.6950 -0.2830 1.6270 -3.2492 -1.4883 0.3713 -0.7951 0.2630 -1.3875 0.8121 1.2470 -0.2837 1.9121 1.2464 6.5433 -11.8702 0.4278 -48.6758 -22.8810 -4.5768 -0.0001 0.0001 129.2658 10.4476 48.8031 28.5459 0.0000 -0.0000 0.0000 0.0000 0.0000 0.0000 8.3177 8.2300 1.3887 -63.7850 22.4805 23.8642 -0.0001 -0.0000 -135.1538 4.0993 -44.2102 -36.3009 0.0000 0.0000 -0.0000 -0.0000 0.0000 0.0000 -36.3962 5.8671 -4.3275 50.9808 0.0000 0.0000 -13.0429 -0.3208 -4.2728 -0.0807 0.0000 -0.0000 16.7560 4.8713 -4.0573 33.0511 0.0000 0.0000 -29.1651 -5.6368 13.8390 -12.9733 0.0000 -0.0000
 6.3929 1.3602 33.8934 4.0881 3.3498 -177.8187 -0.6774 1.4920 -1.1790 0.0409 -0.6654 -0.2876 1.4741 -3.4748 -1.6176 0.3197 -0.8263 0.2760 -1.4768 0.8310 1.2154 -0.1087 1.9440 1.1922 5.9477 -11.8350 0.3494 -49.4292 -22.2559 -4.1377 -0.0001 0.0001 129.7965 10.2803 49.0583 28.7809 -0.0000 0.0000 0.0000 -0.0000 -0.0000 0.0000 7.8816 8.0775 1.3206 -64.6594 21.7229 23.3026 -0.0001 -0.0000 -135.2182 3.7719 -44.8260 -36.2785 -0.0000 -0.0000 0.0000 -0.0000 0.0000 -0.0000 -35.6828 5.4966 -4.4068 51.2198 0.0000 0.0000 -14.0023 -0.1305 -4.6720 -0.2875 0.0000 -0.0000 16.7975 4.3836 -3.9946 33.9924 0.0000 0.0000 -27.1926 -5.1574 13.5352 -15.2624 0.0000 -0.0000
 6.4570 1.8048 33.9811 4.0722 3.0949 -177.5996 -0.8461 1.4219 -1.1380 -0.0066 -0.6303 -0.2918 1.3271 -3.6789 -1.7392 0.2688 -0.8515 0.2891 -1.5522 0.8334 1.1600 0.0634 1.9677 1.1238 5.3674 -11.7586 0.2803 -50.1986 -21.7008 -3.7673 -0.0001 0.0001 130.3285 10.1214 49.2875 29.0222 0.0000 0.0000 -0.0000 0.0000 -0.0000 -0.0000 7.4288 7.9000 1.2224 -65.4820 21.0415 22.7004 -0.0001 -0.0000 -135.2673 3.4309 -45.4193 -36.2517 0.0000 0.0000 -0.0000 0.0000 -0.0000 -0.0000 -34.8534 5.1146 -4.4999 51.2715 0.0000 0.0000 -14.8564 0.0441 -5.0876 -0.5501 0.0000 -0.0000 16.7630 3.8634 -3.8844 35.0139 0.0000 0.0000 -24.9631 -4.7188 13.1036 -17.5992 0.0000 -0.0000
 6.5220 2.2473 34.0852 4.0660 2.8383 -177.3653 -1.0166 1.3396 -1.1006 -0.0549 -0.5857 -0.2925 1.1835 -3.8630 -1.8540 0.2201 -0.8701 0.3019 -1.6120 0.8213 1.0862 0.2318 1.9829 1.0437 4.7998 -11.6401 0.2278 -50.9704 -21.2035 -3.4565 -0.0001 0.0001 130.8628 9.9599 49.4929 29.2786 0.0000 0.0000 -0.0000 0.0000 -0.0000 -0.0000 6.9580 7.7057 1.0993 -66.2483 20.4264 22.0516 -0.0001 -0.0000 -135.3059 3.0539 -45.9869 -36.2210 0.0000 -0.0000 0.0000 0.0000 -0.0000 0.0000 -33.9306 4.7126 -4.5957 51.1487 0.0000 0.0000 -15.5988 0.2167 -5.5230 -0.8213 0.0000 -0.0000 16.6561 3.3129 -3.7331 36.0876 0.0000 0.0000 -22.5017 -4.3692 12.5513 -19.8737 0.0000 -0.0000
 6.5877 2.6875 34.2042 4.0711 2.5777 -177.1233 -1.1839 1.2440 -1.0661 -0.1047 -0.5395 -0.2917 1.0419 -4.0203 -1.9592 0.1739 -0.8842 0.3123 -1.6551 0.7982 1.0008 0.3948 1.9884 0.9547 4.2418 -11.4769 0.2014 -51.7336 -20.7499 -3.1964 -0.0001 0.0001 131.3987 9.7870 49.6749 29.5476 0.0000 -0.0000 0.0000 0.0000 0.0000 0.0000 6.4624 7.4998 0.9597 -66.9504 19.8690 21.3519 -0.0001 -0.0000 -135.3342 2.6203 -46.5269 -36.1905 -0.0000 -0.0000 -0.0000 0.0000 -0.0000 -0.0000 -32.9272 4.2845 -4.6860 50.8664 0.0000 0.0000 -16.2315 0.3981 -5.9796 -1.0630 0.0000 -0.0000 16.4908 2.7352 -3.5499 37.1847 0.0000 0.0000 -19.8497 -4.1609 11.8958 -21.9588 0.0000 -0.0000
 6.6533 3.1247 34.3358 4.0822 2.3136 -176.8798 -1.3496 1.1351 -1.0351 -0.1558 -0.4914 -0.2898 0.9011 -4.1545 -2.0537 0.1308 -0.8929 0.3210 -1.6834 0.7676 0.9090 0.5532 1.9852 0.8587 3.6867 -11.2661 0.2048 -52.4769 -20.3283 -2.9736 -0.0001 0.0001 131.9307 9.6027 49.8401 29.8135 0.0000 0.0000 -0.0000 0.0000 0.0000 -0.0000 5.9511 7.2840 0.8080 -67.5990 19.3640 20.6033 -0.0001 -0.0000 -135.3491 2.1287 -47.0445 -36.1566 0.0000 0.0000 -0.0000 -0.0000 -0.0000 0.0000 -31.8630 3.8297 -4.7620 50.4415 0.0000 0.0000 -16.7629 0.5956 -6.4555 -1.2499 0.0000 -0.0000 16.2711 2.1390 -3.3462 38.2844 0.0000 0.0000 -17.0680 -4.1417 11.1660 -23.7226 0.0000 -0.0000
 6.7181 3.5579 34.4777 4.0929 2.0488 -176.6376 -1.5154 1.0159 -1.0073 -0.2079 -0.4420 -0.2871 0.7597 -4.2668 -2.1386 0.0915 -0.8978 0.3269 -1.6998 0.7338 0.8166 0.7063 1.9732 0.7574 3.1289 -11.0060 0.2418 -53.1917 -19.9272 -2.7728 -0.0001 0.0001 132.4495 9.4125 49.9942 30.0522 0.0000 0.0000 0.0000 0.0000 0.0000 -0.0000 5.4251 7.0578 0.6492 -68.1977 18.9061 19.8106 -0.0001 -0.0000 -135.3433 1.5804 -47.5474 -36.1254 -0.0000 -0.0000 -0.0000 -0.0000 0.0000 0.0000 -30.7570 3.3531 -4.8178 49.8914 0.0000 0.0000 -17.2055 0.8130 -6.9461 -1.3695 0.0000 -0.0000 15.9979 1.5354 -3.1341 39.3722 0.0000 0.0000 -14.2365 -4.3454 10.3997 -25.0413 0.0000 -0.0000
